<svg width="201" height="52" viewBox="0 0 201 52" fill="none" xmlns="http://www.w3.org/2000/svg">
<path d="M36.5781 41C37.25 36.3125 37.5859 31.0625 37.5859 25.25C37.5859 24.3906 37.5781 23.5469 37.5625 22.7188C37.4375 15.875 37.1562 11.125 36.7188 8.46875L36.5781 7.67188C38.4844 7.45313 40.3984 6.78906 42.3203 5.67969L42.4844 5.58594C41.7812 10.0234 41.4297 15.3984 41.4297 21.7109C41.4297 21.9766 41.4297 22.25 41.4297 22.5312C41.4297 30.0312 41.7188 35.1875 42.2969 38L42.4844 38.8438C41.4219 38.9688 40.4688 39.1875 39.625 39.5C38.2656 40 37.25 40.5 36.5781 41ZM49.5156 41C50.1094 36.3125 50.4062 32.4219 50.4062 29.3281C50.4062 27.7812 50.3984 26.9375 50.3828 26.7969C50.3516 23.1562 50.1016 19.8828 49.6328 16.9766L49.5156 16.6016C51.4062 16.3828 53.3203 15.7187 55.2578 14.6094L55.4219 14.5156C55.1094 15.4375 54.7734 16.5 54.4141 17.7031L59.5469 14.5156C60.4375 14.75 61.5391 15.2031 62.8516 15.875C64.0859 16.5156 65.2578 17.3672 66.3672 18.4297L75.4375 14.5156C76.3281 14.75 77.4297 15.2031 78.7422 15.875C79.9609 16.5156 81.1328 17.3672 82.2578 18.4297C83.6328 19.7422 84.6016 21.1875 85.1641 22.7656C85.7734 24.2656 86.1016 25.9062 86.1484 27.6875C86.2891 32.2344 86.5781 35.6719 87.0156 38L87.2031 38.8438C86.1562 38.9688 85.2031 39.1875 84.3438 39.5C82.9844 40 81.9688 40.5 81.2969 41C81.9062 36.9062 82.2109 32.9453 82.2109 29.1172C82.1953 28.6172 82.1875 28.1719 82.1875 27.7812C82.1875 25.9844 81.9062 24.625 81.3438 23.7031C80.3906 22.2812 79.0312 21.1484 77.2656 20.3047C74.4531 18.9609 71.9531 18.2891 69.7656 18.2891C68.6719 18.2891 67.6562 18.4531 66.7188 18.7812C67.9062 20.0156 68.7578 21.3438 69.2734 22.7656C69.8828 24.2656 70.2109 25.9062 70.2578 27.6875C70.3984 32.2344 70.6875 35.6719 71.125 38L71.3125 38.8438C70.2656 38.9688 69.3125 39.1875 68.4531 39.5C67.0938 40 66.0781 40.5 65.4062 41C66.0156 36.9062 66.3203 32.9453 66.3203 29.1172C66.3047 28.6172 66.2969 28.1719 66.2969 27.7812C66.2969 25.9844 66.0156 24.625 65.4531 23.7031C64.5156 22.3281 63.1562 21.1953 61.375 20.3047C59.8125 19.5234 57.5 18.8203 54.4375 18.1953H54.4141C54.3047 19.3359 54.25 21.8672 54.25 25.7891V26.6094C54.25 31 54.5781 34.7969 55.2344 38L55.4219 38.8438C54.3594 38.9688 53.4062 39.1875 52.5625 39.5C51.2031 40 50.1875 40.5 49.5156 41ZM92.4297 21.3125C92.8359 20.375 93.5234 19.5156 94.4922 18.7344L95.5938 17.8438L100.938 14.5156C101.828 14.75 102.93 15.2031 104.242 15.875C105.492 16.5156 106.664 17.3672 107.758 18.4297C109.133 19.7734 110.102 21.2188 110.664 22.7656C111.273 24.2656 111.602 25.9062 111.648 27.6875C111.758 32.125 112.047 35.5625 112.516 38L112.703 38.8438C111.641 38.9688 110.688 39.1875 109.844 39.5C108.484 40 107.469 40.5 106.797 41C107.391 36.7812 107.688 32.5859 107.688 28.4141C107.688 28.2109 107.688 28 107.688 27.7812C107.688 26 107.406 24.6406 106.844 23.7031C105.859 22.25 104.5 21.1172 102.766 20.3047C101.203 19.5703 98.8906 18.8672 95.8281 18.1953C95.5781 18.5859 95.4531 19.2656 95.4531 20.2344C95.4531 20.8438 95.5547 21.6406 95.7578 22.625L92.4297 21.3125ZM101.852 41C100.961 40.6875 99.5469 40.0312 97.6094 39.0312C96.1562 38.2812 94.75 37.1562 93.3906 35.6562C92.3906 34.0938 91.8906 32.6484 91.8906 31.3203C91.8906 31.2891 91.8906 31.25 91.8906 31.2031C92.125 29.3125 93 27.7812 94.5156 26.6094C97.0781 24.6406 100.289 23.6406 104.148 23.6094C99.3828 25.3594 96.625 27.3125 95.875 29.4688C95.7188 29.9219 95.6406 30.3594 95.6406 30.7812C95.6406 31.5 95.8906 32.1406 96.3906 32.7031C97.7344 34.0625 98.8672 34.9688 99.7891 35.4219C102.617 36.8125 104.945 37.5938 106.773 37.7656L101.852 41ZM137.852 39.0547C137.258 40.3984 136.188 41.9609 134.641 43.7422C133.609 44.9297 132.648 45.8281 131.758 46.4375L126.555 49.7891C125.086 49.2266 124.25 48.8906 124.047 48.7812C123.203 48.3281 122.148 47.5156 120.883 46.3438C120.383 45.8438 119.93 45.3281 119.523 44.7969L123.766 42.6875L125.828 44.6094C127.094 45.7969 128.805 46.3906 130.961 46.3906C131.117 46.3906 131.281 46.3906 131.453 46.3906L131.5 46.3672C132.5 45.5703 133.281 43.5547 133.844 40.3203C134.062 39.0391 134.18 37.9609 134.195 37.0859C134.242 33.8047 134.266 31.5859 134.266 30.4297C134.266 30.1641 134.266 29.9375 134.266 29.75C134.25 28.7969 134.242 28.1641 134.242 27.8516C134.242 26.0391 133.883 24.6641 133.164 23.7266C132.164 22.2422 130.812 21.1094 129.109 20.3281C127.484 19.5781 125.234 18.7969 122.359 17.9844C121.484 19.4844 120.914 20.9609 120.648 22.4141C120.398 23.7891 120.273 25.0547 120.273 26.2109C120.273 26.7578 120.336 27.3516 120.461 27.9922C120.773 29.5859 121.352 30.9922 122.195 32.2109C123.086 33.5547 124.398 34.6484 126.133 35.4922C127.82 36.3047 130.141 37.0547 133.094 37.7422L128.125 41C127.391 40.8125 126.273 40.3359 124.773 39.5703C123.695 39.0234 122.523 38.1797 121.258 37.0391C119.883 35.6953 118.914 34.2031 118.352 32.5625C117.711 30.8125 117.391 29.1562 117.391 27.5938C117.391 25.8906 117.734 24.1797 118.422 22.4609C119.156 20.6172 120.047 19.3203 121.094 18.5703L121.914 17.8672L127.258 14.5391C128.336 14.8203 129.445 15.2813 130.586 15.9219C131.602 16.5 132.766 17.3438 134.078 18.4531C136.078 20.1406 137.359 21.5625 137.922 22.7188L137.992 27.7109C138.102 31.8203 138.227 34.4297 138.367 35.5391C138.508 36.6484 138.578 37.2188 138.578 37.25L137.852 39.0547ZM155.172 41.0938C154.25 40.875 153.141 40.4219 151.844 39.7344C150.547 39.0312 149.375 38.1797 148.328 37.1797C146.953 35.8516 145.992 34.4062 145.445 32.8438C144.914 31.5469 144.578 29.9062 144.438 27.9219V27.8281C144.438 26.1562 144.82 24.4297 145.586 22.6484C146.164 21.2891 146.938 20.0781 147.906 19.0156C148.312 18.5781 148.781 18.1562 149.312 17.75L154.234 14.5156C155.062 14.7969 156.477 15.4531 158.477 16.4844C159.93 17.2344 161.336 18.3594 162.695 19.8594C163.695 21.4219 164.195 22.8672 164.195 24.1953C164.195 24.2266 164.195 24.2656 164.195 24.3125C163.961 26.2188 163.086 27.75 161.57 28.9062C158.992 30.875 155.781 31.875 151.938 31.9062C156.781 30.25 159.648 28.3359 160.539 26.1641C160.727 25.7109 160.82 25.2656 160.82 24.8281C160.82 24.8125 160.82 24.7969 160.82 24.7812C160.82 24.7656 160.82 24.75 160.82 24.7344C160.82 24.0781 160.547 23.4375 160 22.8125C159.141 21.7969 157.906 20.8906 156.297 20.0938C153.547 18.7344 151.312 17.9688 149.594 17.7969C149 18.7656 148.461 20.2344 147.977 22.2031C147.602 23.7344 147.414 25.0625 147.414 26.1875C147.414 26.7188 147.453 27.2266 147.531 27.7109C147.75 29.1016 148.328 30.5 149.266 31.9062C150.234 33.3438 151.586 34.4766 153.32 35.3047C154.82 36.0234 157.125 36.7344 160.234 37.4375L160.258 37.4141C160.508 37.0234 160.633 36.3438 160.633 35.375C160.633 34.7656 160.531 33.9688 160.328 32.9844L163.656 34.2969C163.234 35.25 162.547 36.1094 161.594 36.875C160.875 37.4531 160.516 37.75 160.516 37.7656L155.172 41.0938ZM170.078 41C170.75 36.3125 171.086 31.0625 171.086 25.25C171.086 24.3906 171.078 23.5469 171.062 22.7188C170.938 15.875 170.656 11.125 170.219 8.46875L170.078 7.67188C171.984 7.45313 173.898 6.78906 175.82 5.67969L175.984 5.58594C175.281 10.0234 174.93 15.3984 174.93 21.7109C174.93 21.9766 174.93 22.25 174.93 22.5312C174.93 30.0312 175.219 35.1875 175.797 38L175.984 38.8438C174.922 38.9688 173.969 39.1875 173.125 39.5C171.766 40 170.75 40.5 170.078 41ZM183.602 41C183.945 38.6406 184.195 36.1562 184.352 33.5469C184.523 30.9375 184.609 28.1719 184.609 25.25C184.609 24.75 184.609 24.2891 184.609 23.8672C184.609 23.4453 184.602 23.0625 184.586 22.7188L184.445 17.375C183.32 17.4062 182.25 17.4688 181.234 17.5625C180.234 17.6562 179.266 17.7891 178.328 17.9609C178.547 17.6172 178.75 17.1562 178.938 16.5781C179.109 15.9844 179.242 15.2969 179.336 14.5156L179.711 14.6328C180.164 14.7734 180.773 14.875 181.539 14.9375C182.305 14.9844 183.234 15.0312 184.328 15.0781C184.25 13.625 184.164 12.3516 184.07 11.2578C183.977 10.1641 183.867 9.23438 183.742 8.46875L183.602 7.67188C184.555 7.5625 185.5 7.34375 186.438 7.01562C187.391 6.67187 188.414 6.19531 189.508 5.58594C189.07 8.36719 188.766 11.5469 188.594 15.125C189.781 15.0938 190.883 15.0312 191.898 14.9375C192.93 14.8281 193.891 14.6875 194.781 14.5156C194.266 15.5781 193.945 16.7266 193.82 17.9609L193.445 17.8672C192.914 17.7422 192.234 17.6562 191.406 17.6094C190.578 17.5469 189.609 17.4844 188.5 17.4219C188.484 18.125 188.469 18.8281 188.453 19.5312C188.453 20.2344 188.453 20.9609 188.453 21.7109V22.5312C188.469 26.2969 188.539 29.4609 188.664 32.0234C188.789 34.5859 189.008 36.5781 189.32 38L189.508 38.8438C188.945 38.9219 188.367 39.0469 187.773 39.2188C187.18 39.375 186.609 39.5625 186.062 39.7812C185.531 39.9844 185.047 40.1953 184.609 40.4141C184.172 40.6328 183.836 40.8281 183.602 41Z" fill="url(#paint0_linear_122_8)"/>
<path d="M16 40C24.2843 40 31 32.8366 31 24C31 15.1634 24.2843 8 16 8C7.71573 8 1 15.1634 1 24C1 32.8366 7.71573 40 16 40Z" stroke="url(#paint1_linear_122_8)" stroke-linecap="round" stroke-linejoin="round"/>
<path d="M18.7921 20.1522H14.245M18.7921 20.1522L21.0656 24.5M18.7921 20.1522H30M14.245 20.1522L11.9714 24.5M14.245 20.1522L19.6296 9M11.9714 24.5L14.245 28.8478M11.9714 24.5L5.85034 12.7943M14.245 28.8478H18.7921M14.245 28.8478H2M18.7921 28.8478L21.0656 24.5M18.7921 28.8478L12.3704 40M21.0656 24.5L26.8889 35.0179" stroke="url(#paint2_linear_122_8)" stroke-linecap="round" stroke-linejoin="round"/>
<defs>
<linearGradient id="paint0_linear_122_8" x1="19" y1="26" x2="201" y2="26" gradientUnits="userSpaceOnUse">
<stop stop-color="#E94057"/>
<stop offset="0.0001" stop-color="#8A2387"/>
<stop offset="0.4999" stop-color="#E94057"/>
<stop offset="0.9897" stop-color="#F27121"/>
<stop offset="0.9898" stop-color="#8A2387"/>
<stop offset="0.9899" stop-color="#E53F59"/>
<stop offset="0.99" stop-color="#8A2387"/>
</linearGradient>
<linearGradient id="paint1_linear_122_8" x1="16" y1="8" x2="16" y2="40" gradientUnits="userSpaceOnUse">
<stop offset="0.02" stop-color="#8A2387"/>
<stop offset="0.475" stop-color="#E53F59"/>
<stop offset="1" stop-color="#F27121"/>
</linearGradient>
<linearGradient id="paint2_linear_122_8" x1="16.5185" y1="8.44643" x2="16.5185" y2="40.5536" gradientUnits="userSpaceOnUse">
<stop offset="0.02" stop-color="#8A2387"/>
<stop offset="0.475" stop-color="#E53F59"/>
<stop offset="1" stop-color="#F27121"/>
</linearGradient>
</defs>
</svg>
